<mxfile host="65bd71144e">
    <diagram name="Data Flow" id="y7y4WxXYuXsc01ycoP_v">
        <mxGraphModel dx="1059" dy="454" grid="1" gridSize="10" guides="1" tooltips="1" connect="1" arrows="1" fold="1" page="1" pageScale="1" pageWidth="850" pageHeight="1100" math="0" shadow="0">
            <root>
                <mxCell id="0"/>
                <mxCell id="1" parent="0"/>
                <mxCell id="NFhts6zr0IFQgZuLDHkn-1" value="" style="rounded=0;whiteSpace=wrap;html=1;fillColor=none;dashed=1;" parent="1" vertex="1">
                    <mxGeometry x="40" y="100" width="170" height="360" as="geometry"/>
                </mxCell>
                <mxCell id="NFhts6zr0IFQgZuLDHkn-2" value="&lt;font style=&quot;font-size: 24px;&quot;&gt;Sources&lt;/font&gt;" style="rounded=1;whiteSpace=wrap;html=1;" parent="1" vertex="1">
                    <mxGeometry x="65" y="70" width="120" height="60" as="geometry"/>
                </mxCell>
                <mxCell id="NFhts6zr0IFQgZuLDHkn-14" style="edgeStyle=orthogonalEdgeStyle;rounded=0;orthogonalLoop=1;jettySize=auto;html=1;entryX=0;entryY=0.5;entryDx=0;entryDy=0;" parent="1" source="NFhts6zr0IFQgZuLDHkn-3" target="NFhts6zr0IFQgZuLDHkn-11" edge="1">
                    <mxGeometry relative="1" as="geometry">
                        <Array as="points">
                            <mxPoint x="214" y="201"/>
                            <mxPoint x="214" y="257"/>
                        </Array>
                    </mxGeometry>
                </mxCell>
                <mxCell id="NFhts6zr0IFQgZuLDHkn-17" style="edgeStyle=orthogonalEdgeStyle;rounded=0;orthogonalLoop=1;jettySize=auto;html=1;entryX=0;entryY=0.5;entryDx=0;entryDy=0;" parent="1" source="NFhts6zr0IFQgZuLDHkn-3" target="NFhts6zr0IFQgZuLDHkn-9" edge="1">
                    <mxGeometry relative="1" as="geometry">
                        <Array as="points">
                            <mxPoint x="214" y="201"/>
                            <mxPoint x="214" y="178"/>
                        </Array>
                    </mxGeometry>
                </mxCell>
                <mxCell id="NFhts6zr0IFQgZuLDHkn-18" style="edgeStyle=orthogonalEdgeStyle;rounded=0;orthogonalLoop=1;jettySize=auto;html=1;entryX=0;entryY=0.5;entryDx=0;entryDy=0;" parent="1" source="NFhts6zr0IFQgZuLDHkn-3" target="NFhts6zr0IFQgZuLDHkn-10" edge="1">
                    <mxGeometry relative="1" as="geometry"/>
                </mxCell>
                <mxCell id="NFhts6zr0IFQgZuLDHkn-3" value="&lt;div&gt;&lt;div&gt;&lt;font style=&quot;font-size: 14px;&quot;&gt;CRM&lt;/font&gt;&lt;div&gt;&lt;br&gt;&lt;/div&gt;&lt;/div&gt;&lt;/div&gt;" style="image;aspect=fixed;html=1;points=[];align=center;fontSize=12;image=img/lib/azure2/general/Folder_Blank.svg;" parent="1" vertex="1">
                    <mxGeometry x="90.5" y="177" width="59.5" height="48.29" as="geometry"/>
                </mxCell>
                <mxCell id="NFhts6zr0IFQgZuLDHkn-22" style="edgeStyle=orthogonalEdgeStyle;rounded=0;orthogonalLoop=1;jettySize=auto;html=1;" parent="1" source="NFhts6zr0IFQgZuLDHkn-4" target="NFhts6zr0IFQgZuLDHkn-19" edge="1">
                    <mxGeometry relative="1" as="geometry"/>
                </mxCell>
                <mxCell id="NFhts6zr0IFQgZuLDHkn-23" style="edgeStyle=orthogonalEdgeStyle;rounded=0;orthogonalLoop=1;jettySize=auto;html=1;" parent="1" source="NFhts6zr0IFQgZuLDHkn-4" target="NFhts6zr0IFQgZuLDHkn-20" edge="1">
                    <mxGeometry relative="1" as="geometry"/>
                </mxCell>
                <mxCell id="NFhts6zr0IFQgZuLDHkn-24" style="edgeStyle=orthogonalEdgeStyle;rounded=0;orthogonalLoop=1;jettySize=auto;html=1;entryX=0;entryY=0.5;entryDx=0;entryDy=0;" parent="1" source="NFhts6zr0IFQgZuLDHkn-4" target="NFhts6zr0IFQgZuLDHkn-21" edge="1">
                    <mxGeometry relative="1" as="geometry"/>
                </mxCell>
                <mxCell id="NFhts6zr0IFQgZuLDHkn-4" value="&lt;div&gt;&lt;div&gt;&lt;div&gt;&lt;span style=&quot;font-size: 14px;&quot;&gt;ERP&lt;/span&gt;&lt;/div&gt;&lt;/div&gt;&lt;/div&gt;&lt;div&gt;&lt;span style=&quot;font-size: 14px;&quot;&gt;&lt;br&gt;&lt;/span&gt;&lt;/div&gt;" style="image;aspect=fixed;html=1;points=[];align=center;fontSize=12;image=img/lib/azure2/general/Folder_Blank.svg;" parent="1" vertex="1">
                    <mxGeometry x="90.5" y="330.21" width="59.5" height="48.29" as="geometry"/>
                </mxCell>
                <mxCell id="NFhts6zr0IFQgZuLDHkn-13" style="edgeStyle=orthogonalEdgeStyle;rounded=0;orthogonalLoop=1;jettySize=auto;html=1;exitX=0.5;exitY=1;exitDx=0;exitDy=0;" parent="1" source="NFhts6zr0IFQgZuLDHkn-7" edge="1">
                    <mxGeometry relative="1" as="geometry">
                        <mxPoint x="346" y="480" as="targetPoint"/>
                    </mxGeometry>
                </mxCell>
                <mxCell id="NFhts6zr0IFQgZuLDHkn-7" value="" style="rounded=1;whiteSpace=wrap;html=1;fillColor=#ffe6cc;strokeColor=light-dark(#1f1f1e, #996500);fillStyle=hatch;shadow=0;glass=0;dashed=1;" parent="1" vertex="1">
                    <mxGeometry x="265.63" y="115" width="161.25" height="345" as="geometry"/>
                </mxCell>
                <mxCell id="NFhts6zr0IFQgZuLDHkn-8" value="&lt;font style=&quot;font-size: 16px;&quot;&gt;&lt;b style=&quot;&quot;&gt;Bronze Layer&lt;/b&gt;&lt;/font&gt;" style="rounded=1;whiteSpace=wrap;html=1;fillColor=#ffe6cc;strokeColor=#d79b00;align=center;" parent="1" vertex="1">
                    <mxGeometry x="282.5" y="70" width="127.5" height="40" as="geometry"/>
                </mxCell>
                <mxCell id="NFhts6zr0IFQgZuLDHkn-9" value="&lt;font&gt;crm_sales_details&amp;nbsp;&lt;/font&gt;" style="rounded=1;whiteSpace=wrap;html=1;fillColor=#ffe6cc;strokeColor=#d79b00;align=center;" parent="1" vertex="1">
                    <mxGeometry x="277.5" y="161.5" width="137.5" height="33" as="geometry"/>
                </mxCell>
                <mxCell id="NFhts6zr0IFQgZuLDHkn-10" value="crm_cust_info" style="rounded=1;whiteSpace=wrap;html=1;fillColor=#ffe6cc;strokeColor=#d79b00;align=center;" parent="1" vertex="1">
                    <mxGeometry x="277.5" y="200" width="137.5" height="33" as="geometry"/>
                </mxCell>
                <mxCell id="15" style="edgeStyle=none;html=1;" parent="1" source="NFhts6zr0IFQgZuLDHkn-11" edge="1">
                    <mxGeometry relative="1" as="geometry">
                        <mxPoint x="460" y="256.5" as="targetPoint"/>
                    </mxGeometry>
                </mxCell>
                <mxCell id="NFhts6zr0IFQgZuLDHkn-11" value="crm_prd_info" style="rounded=1;whiteSpace=wrap;html=1;fillColor=#ffe6cc;strokeColor=#d79b00;align=center;" parent="1" vertex="1">
                    <mxGeometry x="277.5" y="240" width="137.5" height="33" as="geometry"/>
                </mxCell>
                <mxCell id="17" style="edgeStyle=none;html=1;" parent="1" source="NFhts6zr0IFQgZuLDHkn-19" edge="1">
                    <mxGeometry relative="1" as="geometry">
                        <mxPoint x="460" y="335" as="targetPoint"/>
                    </mxGeometry>
                </mxCell>
                <mxCell id="NFhts6zr0IFQgZuLDHkn-19" value="erp_cust_az12" style="rounded=1;whiteSpace=wrap;html=1;fillColor=#ffe6cc;strokeColor=#d79b00;align=center;" parent="1" vertex="1">
                    <mxGeometry x="277.5" y="320" width="140" height="30" as="geometry"/>
                </mxCell>
                <mxCell id="18" style="edgeStyle=none;html=1;entryX=0;entryY=0.75;entryDx=0;entryDy=0;" parent="1" source="NFhts6zr0IFQgZuLDHkn-20" target="2" edge="1">
                    <mxGeometry relative="1" as="geometry"/>
                </mxCell>
                <mxCell id="NFhts6zr0IFQgZuLDHkn-20" value="erp_loc_a101" style="rounded=1;whiteSpace=wrap;html=1;fillColor=#ffe6cc;strokeColor=#d79b00;align=center;" parent="1" vertex="1">
                    <mxGeometry x="277.5" y="360" width="140" height="30" as="geometry"/>
                </mxCell>
                <mxCell id="NFhts6zr0IFQgZuLDHkn-21" value="erp_px_cat_g1v2" style="rounded=1;whiteSpace=wrap;html=1;fillColor=#ffe6cc;strokeColor=#d79b00;align=center;" parent="1" vertex="1">
                    <mxGeometry x="277.5" y="400" width="140" height="30" as="geometry"/>
                </mxCell>
                <mxCell id="2" value="" style="rounded=1;whiteSpace=wrap;html=1;fillStyle=hatch;shadow=0;glass=0;dashed=1;" parent="1" vertex="1">
                    <mxGeometry x="461.24" y="115" width="161.25" height="345" as="geometry"/>
                </mxCell>
                <mxCell id="3" value="&lt;font style=&quot;font-size: 16px;&quot;&gt;&lt;b&gt;Silver Layer&lt;/b&gt;&lt;/font&gt;" style="rounded=1;whiteSpace=wrap;html=1;fillColor=#f5f5f5;strokeColor=#666666;align=center;gradientColor=#b3b3b3;" parent="1" vertex="1">
                    <mxGeometry x="476.87" y="70" width="127.5" height="40" as="geometry"/>
                </mxCell>
                <mxCell id="29" style="edgeStyle=none;html=1;" edge="1" parent="1" source="4">
                    <mxGeometry relative="1" as="geometry">
                        <mxPoint x="690" y="200" as="targetPoint"/>
                    </mxGeometry>
                </mxCell>
                <mxCell id="4" value="&lt;font style=&quot;color: light-dark(rgb(11, 9, 9), rgb(18, 18, 18));&quot;&gt;crm_sales_details&amp;nbsp;&lt;/font&gt;" style="rounded=1;whiteSpace=wrap;html=1;fillColor=#f5f5f5;strokeColor=#666666;align=center;gradientColor=#b3b3b3;" parent="1" vertex="1">
                    <mxGeometry x="471.87" y="161.5" width="137.5" height="33" as="geometry"/>
                </mxCell>
                <mxCell id="32" style="edgeStyle=none;html=1;entryX=0;entryY=0.5;entryDx=0;entryDy=0;" edge="1" parent="1" source="5" target="23">
                    <mxGeometry relative="1" as="geometry"/>
                </mxCell>
                <mxCell id="5" value="crm_cust_info" style="rounded=1;whiteSpace=wrap;html=1;fillColor=#f5f5f5;strokeColor=#666666;align=center;gradientColor=#b3b3b3;" parent="1" vertex="1">
                    <mxGeometry x="474.37" y="207" width="137.5" height="33" as="geometry"/>
                </mxCell>
                <mxCell id="33" style="edgeStyle=none;html=1;entryX=0;entryY=0.5;entryDx=0;entryDy=0;" edge="1" parent="1" source="6" target="24">
                    <mxGeometry relative="1" as="geometry"/>
                </mxCell>
                <mxCell id="6" value="crm_prd_info" style="rounded=1;whiteSpace=wrap;html=1;fillColor=#f5f5f5;strokeColor=#666666;align=center;gradientColor=#b3b3b3;" parent="1" vertex="1">
                    <mxGeometry x="471.87" y="250" width="137.5" height="33" as="geometry"/>
                </mxCell>
                <mxCell id="34" style="edgeStyle=none;html=1;entryX=0;entryY=0.5;entryDx=0;entryDy=0;" edge="1" parent="1" source="7" target="23">
                    <mxGeometry relative="1" as="geometry"/>
                </mxCell>
                <mxCell id="7" value="erp_cust_az12" style="rounded=1;whiteSpace=wrap;html=1;fillColor=#f5f5f5;strokeColor=#666666;align=center;gradientColor=#b3b3b3;" parent="1" vertex="1">
                    <mxGeometry x="471.87" y="320" width="140" height="30" as="geometry"/>
                </mxCell>
                <mxCell id="8" value="erp_loc_a101" style="rounded=1;whiteSpace=wrap;html=1;fillColor=#f5f5f5;strokeColor=#666666;align=center;gradientColor=#b3b3b3;" parent="1" vertex="1">
                    <mxGeometry x="471.87" y="360" width="140" height="30" as="geometry"/>
                </mxCell>
                <mxCell id="9" value="erp_px_cat_g1v2" style="rounded=1;whiteSpace=wrap;html=1;fillColor=#f5f5f5;strokeColor=#666666;align=center;gradientColor=#b3b3b3;" parent="1" vertex="1">
                    <mxGeometry x="471.87" y="400" width="140" height="30" as="geometry"/>
                </mxCell>
                <mxCell id="10" style="edgeStyle=none;html=1;entryX=-0.008;entryY=0.183;entryDx=0;entryDy=0;entryPerimeter=0;" parent="1" source="NFhts6zr0IFQgZuLDHkn-9" target="2" edge="1">
                    <mxGeometry relative="1" as="geometry"/>
                </mxCell>
                <mxCell id="14" style="edgeStyle=none;html=1;entryX=-0.008;entryY=0.29;entryDx=0;entryDy=0;entryPerimeter=0;" parent="1" source="NFhts6zr0IFQgZuLDHkn-10" target="2" edge="1">
                    <mxGeometry relative="1" as="geometry"/>
                </mxCell>
                <mxCell id="19" style="edgeStyle=none;html=1;entryX=-0.008;entryY=0.87;entryDx=0;entryDy=0;entryPerimeter=0;" parent="1" source="NFhts6zr0IFQgZuLDHkn-21" target="2" edge="1">
                    <mxGeometry relative="1" as="geometry"/>
                </mxCell>
                <mxCell id="20" value="" style="rounded=1;whiteSpace=wrap;html=1;fillStyle=hatch;shadow=0;glass=0;dashed=1;" vertex="1" parent="1">
                    <mxGeometry x="678.76" y="115" width="161.25" height="345" as="geometry"/>
                </mxCell>
                <mxCell id="21" value="&lt;span style=&quot;font-size: 16px;&quot;&gt;&lt;b&gt;Gold Layer&lt;/b&gt;&lt;/span&gt;" style="rounded=1;whiteSpace=wrap;html=1;fillColor=#f0a30a;strokeColor=#BD7000;align=center;fontColor=#000000;" vertex="1" parent="1">
                    <mxGeometry x="695.63" y="70" width="127.5" height="40" as="geometry"/>
                </mxCell>
                <mxCell id="22" value="&lt;font color=&quot;#0b0909&quot;&gt;fact_sales&lt;/font&gt;" style="rounded=1;whiteSpace=wrap;html=1;fillColor=#f0a30a;strokeColor=#BD7000;align=center;fontColor=#000000;" vertex="1" parent="1">
                    <mxGeometry x="690.63" y="186.14" width="137.5" height="30" as="geometry"/>
                </mxCell>
                <mxCell id="23" value="dim_customers" style="rounded=1;whiteSpace=wrap;html=1;fillColor=#f0a30a;strokeColor=#BD7000;align=center;fontColor=#000000;" vertex="1" parent="1">
                    <mxGeometry x="690.63" y="250" width="137.5" height="33" as="geometry"/>
                </mxCell>
                <mxCell id="24" value="dim_products" style="rounded=1;whiteSpace=wrap;html=1;fillColor=#f0a30a;strokeColor=#BD7000;align=center;fontColor=#000000;" vertex="1" parent="1">
                    <mxGeometry x="690.63" y="320" width="137.5" height="30" as="geometry"/>
                </mxCell>
                <mxCell id="35" style="edgeStyle=none;html=1;entryX=0.07;entryY=0.42;entryDx=0;entryDy=0;entryPerimeter=0;exitX=0.93;exitY=0.133;exitDx=0;exitDy=0;exitPerimeter=0;" edge="1" parent="1" source="8" target="20">
                    <mxGeometry relative="1" as="geometry"/>
                </mxCell>
                <mxCell id="36" style="edgeStyle=none;html=1;entryX=0;entryY=0.75;entryDx=0;entryDy=0;exitX=1;exitY=0.5;exitDx=0;exitDy=0;" edge="1" parent="1" source="9" target="24">
                    <mxGeometry relative="1" as="geometry"/>
                </mxCell>
            </root>
        </mxGraphModel>
    </diagram>
</mxfile>